<svg width="105" height="71" viewBox="0 0 105 71" fill="none" xmlns="http://www.w3.org/2000/svg">
<path d="M61.83 39V32H64.86C65.4867 32 66.0267 32.1033 66.48 32.31C66.9333 32.51 67.2833 32.8 67.53 33.18C67.7767 33.56 67.9 34.0133 67.9 34.54C67.9 35.06 67.7767 35.51 67.53 35.89C67.2833 36.27 66.9333 36.5633 66.48 36.77C66.0267 36.97 65.4867 37.07 64.86 37.07H62.73L63.45 36.34V39H61.83ZM63.45 36.52L62.73 35.75H64.77C65.27 35.75 65.6433 35.6433 65.89 35.43C66.1367 35.2167 66.26 34.92 66.26 34.54C66.26 34.1533 66.1367 33.8533 65.89 33.64C65.6433 33.4267 65.27 33.32 64.77 33.32H62.73L63.45 32.55V36.52ZM69.0566 39V32H72.0866C72.7132 32 73.2532 32.1033 73.7066 32.31C74.1599 32.51 74.5099 32.8 74.7566 33.18C75.0032 33.56 75.1266 34.0133 75.1266 34.54C75.1266 35.06 75.0032 35.51 74.7566 35.89C74.5099 36.2633 74.1599 36.55 73.7066 36.75C73.2532 36.95 72.7132 37.05 72.0866 37.05H69.9566L70.6766 36.34V39H69.0566ZM73.5066 39L71.7566 36.46H73.4866L75.2566 39H73.5066ZM70.6766 36.52L69.9566 35.76H71.9966C72.4966 35.76 72.8699 35.6533 73.1166 35.44C73.3632 35.22 73.4866 34.92 73.4866 34.54C73.4866 34.1533 73.3632 33.8533 73.1166 33.64C72.8699 33.4267 72.4966 33.32 71.9966 33.32H69.9566L70.6766 32.55V36.52ZM78.5101 39L75.4901 32H77.2401L79.8801 38.2H78.8501L81.5301 32H83.1401L80.1101 39H78.5101ZM83.7245 39V32H85.0645L89.1945 37.04H88.5445V32H90.1445V39H88.8145L84.6745 33.96H85.3245V39H83.7245ZM93.2507 39V33.32H91.0107V32H97.1107V33.32H94.8707V39H93.2507ZM99.9456 39L96.9256 32H98.6756L101.316 38.2H100.286L102.966 32H104.576L101.546 39H99.9456Z" fill="#FCF9F9"/>
<line x1="54.35" x2="54.35" y2="70.4" stroke="#FCF9F9" stroke-width="2.7"/>
<g clip-path="url(#clip0_212_36)">
<path d="M2.50646 19.519L48.6499 19.7301L2.73937 65.6623L2.50646 19.519Z" fill="#00BF63"/>
</g>
<rect x="1.5" y="18.5" width="42" height="42" stroke="#00BF63" stroke-width="3"/>
<defs>
<clipPath id="clip0_212_36">
<rect y="17" width="45" height="45" fill="white"/>
</clipPath>
</defs>
</svg>
