<svg width="265" height="81" viewBox="0 0 265 81" fill="none" xmlns="http://www.w3.org/2000/svg">
<g clip-path="url(#clip0_208_15)">
<rect width="265" height="81" fill="black"/>
<path d="M73.94 37V30H75.01L78.07 35.11H77.51L80.52 30H81.59L81.6 37H80.37L80.36 31.93H80.62L78.06 36.2H77.48L74.88 31.93H75.18V37H73.94ZM86.6608 37V35.92L86.5908 35.69V33.8C86.5908 33.4333 86.4808 33.15 86.2608 32.95C86.0408 32.7433 85.7074 32.64 85.2608 32.64C84.9608 32.64 84.6641 32.6867 84.3708 32.78C84.0841 32.8733 83.8408 33.0033 83.6408 33.17L83.1508 32.26C83.4374 32.04 83.7774 31.8767 84.1708 31.77C84.5708 31.6567 84.9841 31.6 85.4108 31.6C86.1841 31.6 86.7808 31.7867 87.2008 32.16C87.6274 32.5267 87.8408 33.0967 87.8408 33.87V37H86.6608ZM84.9808 37.07C84.5808 37.07 84.2308 37.0033 83.9308 36.87C83.6308 36.73 83.3974 36.54 83.2308 36.3C83.0708 36.0533 82.9908 35.7767 82.9908 35.47C82.9908 35.17 83.0608 34.9 83.2008 34.66C83.3474 34.42 83.5841 34.23 83.9108 34.09C84.2374 33.95 84.6708 33.88 85.2108 33.88H86.7608V34.71H85.3008C84.8741 34.71 84.5874 34.78 84.4408 34.92C84.2941 35.0533 84.2208 35.22 84.2208 35.42C84.2208 35.6467 84.3108 35.8267 84.4908 35.96C84.6708 36.0933 84.9208 36.16 85.2408 36.16C85.5474 36.16 85.8208 36.09 86.0608 35.95C86.3074 35.81 86.4841 35.6033 86.5908 35.33L86.8008 36.08C86.6808 36.3933 86.4641 36.6367 86.1508 36.81C85.8441 36.9833 85.4541 37.07 84.9808 37.07ZM92.475 31.6C92.9017 31.6 93.2817 31.6833 93.615 31.85C93.955 32.0167 94.2217 32.2733 94.415 32.62C94.6083 32.96 94.705 33.4 94.705 33.94V37H93.455V34.1C93.455 33.6267 93.3417 33.2733 93.115 33.04C92.895 32.8067 92.585 32.69 92.185 32.69C91.8917 32.69 91.6317 32.75 91.405 32.87C91.1783 32.99 91.0017 33.17 90.875 33.41C90.755 33.6433 90.695 33.94 90.695 34.3V37H89.445V31.66H90.635V33.1L90.425 32.66C90.6117 32.32 90.8817 32.06 91.235 31.88C91.595 31.6933 92.0083 31.6 92.475 31.6ZM98.5507 37.07C98.0974 37.07 97.6974 36.9867 97.3507 36.82C97.004 36.6467 96.734 36.3867 96.5407 36.04C96.3474 35.6867 96.2507 35.2433 96.2507 34.71V31.66H97.5007V34.54C97.5007 35.02 97.6074 35.38 97.8207 35.62C98.0407 35.8533 98.3507 35.97 98.7507 35.97C99.044 35.97 99.2974 35.91 99.5107 35.79C99.7307 35.67 99.9007 35.49 100.021 35.25C100.147 35.01 100.211 34.7133 100.211 34.36V31.66H101.461V37H100.271V35.56L100.481 36C100.301 36.3467 100.037 36.6133 99.6907 36.8C99.344 36.98 98.964 37.07 98.5507 37.07ZM105.107 37.07C104.521 37.07 104.067 36.92 103.747 36.62C103.427 36.3133 103.267 35.8633 103.267 35.27V30.48H104.517V35.24C104.517 35.4933 104.581 35.69 104.707 35.83C104.841 35.97 105.024 36.04 105.257 36.04C105.537 36.04 105.771 35.9667 105.957 35.82L106.307 36.71C106.161 36.83 105.981 36.92 105.767 36.98C105.554 37.04 105.334 37.07 105.107 37.07ZM102.387 32.7V31.7H105.947V32.7H102.387ZM109.67 37.07C109.077 37.07 108.557 36.9533 108.11 36.72C107.67 36.48 107.327 36.1533 107.08 35.74C106.84 35.3267 106.72 34.8567 106.72 34.33C106.72 33.7967 106.837 33.3267 107.07 32.92C107.31 32.5067 107.637 32.1833 108.05 31.95C108.47 31.7167 108.947 31.6 109.48 31.6C110 31.6 110.463 31.7133 110.87 31.94C111.277 32.1667 111.597 32.4867 111.83 32.9C112.063 33.3133 112.18 33.8 112.18 34.36C112.18 34.4133 112.177 34.4733 112.17 34.54C112.17 34.6067 112.167 34.67 112.16 34.73H107.71V33.9H111.5L111.01 34.16C111.017 33.8533 110.953 33.5833 110.82 33.35C110.687 33.1167 110.503 32.9333 110.27 32.8C110.043 32.6667 109.78 32.6 109.48 32.6C109.173 32.6 108.903 32.6667 108.67 32.8C108.443 32.9333 108.263 33.12 108.13 33.36C108.003 33.5933 107.94 33.87 107.94 34.19V34.39C107.94 34.71 108.013 34.9933 108.16 35.24C108.307 35.4867 108.513 35.6767 108.78 35.81C109.047 35.9433 109.353 36.01 109.7 36.01C110 36.01 110.27 35.9633 110.51 35.87C110.75 35.7767 110.963 35.63 111.15 35.43L111.82 36.2C111.58 36.48 111.277 36.6967 110.91 36.85C110.55 36.9967 110.137 37.07 109.67 37.07ZM116.411 31.6C116.837 31.6 117.217 31.6833 117.551 31.85C117.891 32.0167 118.157 32.2733 118.351 32.62C118.544 32.96 118.641 33.4 118.641 33.94V37H117.391V34.1C117.391 33.6267 117.277 33.2733 117.051 33.04C116.831 32.8067 116.521 32.69 116.121 32.69C115.827 32.69 115.567 32.75 115.341 32.87C115.114 32.99 114.937 33.17 114.811 33.41C114.691 33.6433 114.631 33.94 114.631 34.3V37H113.381V31.66H114.571V33.1L114.361 32.66C114.547 32.32 114.817 32.06 115.171 31.88C115.531 31.6933 115.944 31.6 116.411 31.6ZM122.686 37.07C122.126 37.07 121.626 36.9533 121.186 36.72C120.753 36.48 120.413 36.1533 120.166 35.74C119.919 35.3267 119.796 34.8567 119.796 34.33C119.796 33.7967 119.919 33.3267 120.166 32.92C120.413 32.5067 120.753 32.1833 121.186 31.95C121.626 31.7167 122.126 31.6 122.686 31.6C123.206 31.6 123.663 31.7067 124.056 31.92C124.456 32.1267 124.759 32.4333 124.966 32.84L124.006 33.4C123.846 33.1467 123.649 32.96 123.416 32.84C123.189 32.72 122.943 32.66 122.676 32.66C122.369 32.66 122.093 32.7267 121.846 32.86C121.599 32.9933 121.406 33.1867 121.266 33.44C121.126 33.6867 121.056 33.9833 121.056 34.33C121.056 34.6767 121.126 34.9767 121.266 35.23C121.406 35.4767 121.599 35.6667 121.846 35.8C122.093 35.9333 122.369 36 122.676 36C122.943 36 123.189 35.94 123.416 35.82C123.649 35.7 123.846 35.5133 124.006 35.26L124.966 35.82C124.759 36.22 124.456 36.53 124.056 36.75C123.663 36.9633 123.206 37.07 122.686 37.07ZM122.166 39.28C121.986 39.28 121.819 39.26 121.666 39.22C121.513 39.1867 121.373 39.1367 121.246 39.07L121.476 38.48C121.583 38.5333 121.689 38.5733 121.796 38.6C121.909 38.6267 122.029 38.64 122.156 38.64C122.349 38.64 122.486 38.6067 122.566 38.54C122.646 38.4733 122.686 38.3867 122.686 38.28C122.686 38.18 122.643 38.1 122.556 38.04C122.476 37.98 122.343 37.95 122.156 37.95H121.846L122.116 36.93H122.796L122.656 37.49C122.949 37.5233 123.166 37.6167 123.306 37.77C123.453 37.93 123.526 38.1167 123.526 38.33C123.526 38.6233 123.403 38.8533 123.156 39.02C122.909 39.1933 122.579 39.28 122.166 39.28ZM129.337 37V35.92L129.267 35.69V33.8C129.267 33.4333 129.157 33.15 128.937 32.95C128.717 32.7433 128.383 32.64 127.937 32.64C127.637 32.64 127.34 32.6867 127.047 32.78C126.76 32.8733 126.517 33.0033 126.317 33.17L125.827 32.26C126.113 32.04 126.453 31.8767 126.847 31.77C127.247 31.6567 127.66 31.6 128.087 31.6C128.86 31.6 129.457 31.7867 129.877 32.16C130.303 32.5267 130.517 33.0967 130.517 33.87V37H129.337ZM127.657 37.07C127.257 37.07 126.907 37.0033 126.607 36.87C126.307 36.73 126.073 36.54 125.907 36.3C125.747 36.0533 125.667 35.7767 125.667 35.47C125.667 35.17 125.737 34.9 125.877 34.66C126.023 34.42 126.26 34.23 126.587 34.09C126.913 33.95 127.347 33.88 127.887 33.88H129.437V34.71H127.977C127.55 34.71 127.263 34.78 127.117 34.92C126.97 35.0533 126.897 35.22 126.897 35.42C126.897 35.6467 126.987 35.8267 127.167 35.96C127.347 36.0933 127.597 36.16 127.917 36.16C128.223 36.16 128.497 36.09 128.737 35.95C128.983 35.81 129.16 35.6033 129.267 35.33L129.477 36.08C129.357 36.3933 129.14 36.6367 128.827 36.81C128.52 36.9833 128.13 37.07 127.657 37.07ZM128.917 30.93C128.757 30.93 128.61 30.9 128.477 30.84C128.35 30.7733 128.233 30.6967 128.127 30.61C128.027 30.5167 127.93 30.4367 127.837 30.37C127.743 30.3033 127.65 30.27 127.557 30.27C127.417 30.27 127.303 30.3233 127.217 30.43C127.13 30.5367 127.08 30.6833 127.067 30.87H126.397C126.41 30.4567 126.51 30.13 126.697 29.89C126.89 29.65 127.15 29.53 127.477 29.53C127.637 29.53 127.783 29.5633 127.917 29.63C128.05 29.6967 128.167 29.7733 128.267 29.86C128.373 29.9467 128.473 30.0233 128.567 30.09C128.66 30.1567 128.75 30.19 128.837 30.19C128.977 30.19 129.09 30.14 129.177 30.04C129.27 29.94 129.32 29.8 129.327 29.62H129.997C129.99 30.0067 129.89 30.3233 129.697 30.57C129.503 30.81 129.243 30.93 128.917 30.93ZM134.531 37.07C133.984 37.07 133.497 36.9533 133.071 36.72C132.644 36.48 132.307 36.1533 132.061 35.74C131.814 35.3267 131.691 34.8567 131.691 34.33C131.691 33.7967 131.814 33.3267 132.061 32.92C132.307 32.5067 132.644 32.1833 133.071 31.95C133.497 31.7167 133.984 31.6 134.531 31.6C135.084 31.6 135.574 31.7167 136.001 31.95C136.434 32.1833 136.771 32.5033 137.011 32.91C137.257 33.3167 137.381 33.79 137.381 34.33C137.381 34.8567 137.257 35.3267 137.011 35.74C136.771 36.1533 136.434 36.48 136.001 36.72C135.574 36.9533 135.084 37.07 134.531 37.07ZM134.531 36C134.837 36 135.111 35.9333 135.351 35.8C135.591 35.6667 135.777 35.4733 135.911 35.22C136.051 34.9667 136.121 34.67 136.121 34.33C136.121 33.9833 136.051 33.6867 135.911 33.44C135.777 33.1867 135.591 32.9933 135.351 32.86C135.111 32.7267 134.841 32.66 134.541 32.66C134.234 32.66 133.961 32.7267 133.721 32.86C133.487 32.9933 133.301 33.1867 133.161 33.44C133.021 33.6867 132.951 33.9833 132.951 34.33C132.951 34.67 133.021 34.9667 133.161 35.22C133.301 35.4733 133.487 35.6667 133.721 35.8C133.961 35.9333 134.231 36 134.531 36ZM143.6 37.07C143.086 37.07 142.623 36.9567 142.21 36.73C141.803 36.4967 141.483 36.1767 141.25 35.77C141.016 35.3633 140.9 34.8833 140.9 34.33C140.9 33.7767 141.016 33.2967 141.25 32.89C141.483 32.4833 141.803 32.1667 142.21 31.94C142.623 31.7133 143.086 31.6 143.6 31.6C144.046 31.6 144.446 31.7 144.8 31.9C145.153 32.0933 145.433 32.39 145.64 32.79C145.846 33.19 145.95 33.7033 145.95 34.33C145.95 34.95 145.85 35.4633 145.65 35.87C145.45 36.27 145.173 36.57 144.82 36.77C144.466 36.97 144.06 37.07 143.6 37.07ZM143.75 36C144.05 36 144.316 35.9333 144.55 35.8C144.79 35.6667 144.98 35.4733 145.12 35.22C145.266 34.9667 145.34 34.67 145.34 34.33C145.34 33.9833 145.266 33.6867 145.12 33.44C144.98 33.1867 144.79 32.9933 144.55 32.86C144.316 32.7267 144.05 32.66 143.75 32.66C143.45 32.66 143.18 32.7267 142.94 32.86C142.706 32.9933 142.516 33.1867 142.37 33.44C142.23 33.6867 142.16 33.9833 142.16 34.33C142.16 34.67 142.23 34.9667 142.37 35.22C142.516 35.4733 142.706 35.6667 142.94 35.8C143.18 35.9333 143.45 36 143.75 36ZM145.37 37V35.74L145.42 34.32L145.32 32.9V29.58H146.56V37H145.37ZM150.715 37.07C150.121 37.07 149.601 36.9533 149.155 36.72C148.715 36.48 148.371 36.1533 148.125 35.74C147.885 35.3267 147.765 34.8567 147.765 34.33C147.765 33.7967 147.881 33.3267 148.115 32.92C148.355 32.5067 148.681 32.1833 149.095 31.95C149.515 31.7167 149.991 31.6 150.525 31.6C151.045 31.6 151.508 31.7133 151.915 31.94C152.321 32.1667 152.641 32.4867 152.875 32.9C153.108 33.3133 153.225 33.8 153.225 34.36C153.225 34.4133 153.221 34.4733 153.215 34.54C153.215 34.6067 153.211 34.67 153.205 34.73H148.755V33.9H152.545L152.055 34.16C152.061 33.8533 151.998 33.5833 151.865 33.35C151.731 33.1167 151.548 32.9333 151.315 32.8C151.088 32.6667 150.825 32.6 150.525 32.6C150.218 32.6 149.948 32.6667 149.715 32.8C149.488 32.9333 149.308 33.12 149.175 33.36C149.048 33.5933 148.985 33.87 148.985 34.19V34.39C148.985 34.71 149.058 34.9933 149.205 35.24C149.351 35.4867 149.558 35.6767 149.825 35.81C150.091 35.9433 150.398 36.01 150.745 36.01C151.045 36.01 151.315 35.9633 151.555 35.87C151.795 35.7767 152.008 35.63 152.195 35.43L152.865 36.2C152.625 36.48 152.321 36.6967 151.955 36.85C151.595 36.9967 151.181 37.07 150.715 37.07ZM163.929 31.6C164.356 31.6 164.732 31.6833 165.059 31.85C165.392 32.0167 165.652 32.2733 165.839 32.62C166.026 32.96 166.119 33.4 166.119 33.94V37H164.869V34.1C164.869 33.6267 164.766 33.2733 164.559 33.04C164.352 32.8067 164.056 32.69 163.669 32.69C163.396 32.69 163.152 32.75 162.939 32.87C162.732 32.99 162.569 33.1667 162.449 33.4C162.336 33.6333 162.279 33.93 162.279 34.29V37H161.029V34.1C161.029 33.6267 160.926 33.2733 160.719 33.04C160.512 32.8067 160.216 32.69 159.829 32.69C159.556 32.69 159.312 32.75 159.099 32.87C158.892 32.99 158.729 33.1667 158.609 33.4C158.496 33.6333 158.439 33.93 158.439 34.29V37H157.189V31.66H158.379V33.08L158.169 32.66C158.349 32.3133 158.609 32.05 158.949 31.87C159.296 31.69 159.689 31.6 160.129 31.6C160.629 31.6 161.062 31.7233 161.429 31.97C161.802 32.2167 162.049 32.59 162.169 33.09L161.679 32.92C161.852 32.52 162.139 32.2 162.539 31.96C162.939 31.72 163.402 31.6 163.929 31.6ZM171.006 37V35.92L170.936 35.69V33.8C170.936 33.4333 170.826 33.15 170.606 32.95C170.386 32.7433 170.053 32.64 169.606 32.64C169.306 32.64 169.01 32.6867 168.716 32.78C168.43 32.8733 168.186 33.0033 167.986 33.17L167.496 32.26C167.783 32.04 168.123 31.8767 168.516 31.77C168.916 31.6567 169.33 31.6 169.756 31.6C170.53 31.6 171.126 31.7867 171.546 32.16C171.973 32.5267 172.186 33.0967 172.186 33.87V37H171.006ZM169.326 37.07C168.926 37.07 168.576 37.0033 168.276 36.87C167.976 36.73 167.743 36.54 167.576 36.3C167.416 36.0533 167.336 35.7767 167.336 35.47C167.336 35.17 167.406 34.9 167.546 34.66C167.693 34.42 167.93 34.23 168.256 34.09C168.583 33.95 169.016 33.88 169.556 33.88H171.106V34.71H169.646C169.22 34.71 168.933 34.78 168.786 34.92C168.64 35.0533 168.566 35.22 168.566 35.42C168.566 35.6467 168.656 35.8267 168.836 35.96C169.016 36.0933 169.266 36.16 169.586 36.16C169.893 36.16 170.166 36.09 170.406 35.95C170.653 35.81 170.83 35.6033 170.936 35.33L171.146 36.08C171.026 36.3933 170.81 36.6367 170.496 36.81C170.19 36.9833 169.8 37.07 169.326 37.07ZM169.026 30.93L170.376 29.56H171.846L170.106 30.93H169.026ZM176.06 37.07C175.547 37.07 175.084 36.9567 174.67 36.73C174.264 36.5033 173.944 36.1867 173.71 35.78C173.477 35.3667 173.36 34.8833 173.36 34.33C173.36 33.7767 173.477 33.2967 173.71 32.89C173.944 32.4833 174.264 32.1667 174.67 31.94C175.084 31.7133 175.547 31.6 176.06 31.6C176.52 31.6 176.924 31.7 177.27 31.9C177.624 32.0933 177.9 32.39 178.1 32.79C178.307 33.19 178.41 33.7033 178.41 34.33C178.41 34.95 178.304 35.4633 178.09 35.87C177.884 36.27 177.604 36.57 177.25 36.77C176.897 36.97 176.5 37.07 176.06 37.07ZM176.2 36C176.5 36 176.77 35.9333 177.01 35.8C177.25 35.6667 177.44 35.4733 177.58 35.22C177.72 34.9667 177.79 34.67 177.79 34.33C177.79 33.9833 177.72 33.6867 177.58 33.44C177.44 33.1867 177.25 32.9933 177.01 32.86C176.77 32.7267 176.5 32.66 176.2 32.66C175.9 32.66 175.63 32.7267 175.39 32.86C175.157 32.9933 174.97 33.1867 174.83 33.44C174.69 33.6867 174.62 33.9833 174.62 34.33C174.62 34.67 174.69 34.9667 174.83 35.22C174.97 35.4733 175.157 35.6667 175.39 35.8C175.63 35.9333 175.9 36 176.2 36ZM177.77 38.94V35.76L177.87 34.34L177.83 32.92V31.66H179.02V38.94H177.77ZM182.916 37.07C182.463 37.07 182.063 36.9867 181.716 36.82C181.369 36.6467 181.099 36.3867 180.906 36.04C180.713 35.6867 180.616 35.2433 180.616 34.71V31.66H181.866V34.54C181.866 35.02 181.973 35.38 182.186 35.62C182.406 35.8533 182.716 35.97 183.116 35.97C183.409 35.97 183.663 35.91 183.876 35.79C184.096 35.67 184.266 35.49 184.386 35.25C184.513 35.01 184.576 34.7133 184.576 34.36V31.66H185.826V37H184.636V35.56L184.846 36C184.666 36.3467 184.403 36.6133 184.056 36.8C183.709 36.98 183.329 37.07 182.916 37.07ZM187.463 37V31.66H188.713V37H187.463ZM188.093 30.78C187.859 30.78 187.666 30.7067 187.513 30.56C187.366 30.4133 187.293 30.2367 187.293 30.03C187.293 29.8167 187.366 29.64 187.513 29.5C187.666 29.3533 187.859 29.28 188.093 29.28C188.326 29.28 188.516 29.35 188.663 29.49C188.816 29.6233 188.893 29.7933 188.893 30C188.893 30.22 188.819 30.4067 188.673 30.56C188.526 30.7067 188.333 30.78 188.093 30.78ZM193.383 31.6C193.81 31.6 194.19 31.6833 194.523 31.85C194.863 32.0167 195.13 32.2733 195.323 32.62C195.517 32.96 195.613 33.4 195.613 33.94V37H194.363V34.1C194.363 33.6267 194.25 33.2733 194.023 33.04C193.803 32.8067 193.493 32.69 193.093 32.69C192.8 32.69 192.54 32.75 192.313 32.87C192.087 32.99 191.91 33.17 191.783 33.41C191.663 33.6433 191.603 33.94 191.603 34.3V37H190.353V31.66H191.543V33.1L191.333 32.66C191.52 32.32 191.79 32.06 192.143 31.88C192.503 31.6933 192.917 31.6 193.383 31.6ZM200.489 37V35.92L200.419 35.69V33.8C200.419 33.4333 200.309 33.15 200.089 32.95C199.869 32.7433 199.536 32.64 199.089 32.64C198.789 32.64 198.492 32.6867 198.199 32.78C197.912 32.8733 197.669 33.0033 197.469 33.17L196.979 32.26C197.266 32.04 197.606 31.8767 197.999 31.77C198.399 31.6567 198.812 31.6 199.239 31.6C200.012 31.6 200.609 31.7867 201.029 32.16C201.456 32.5267 201.669 33.0967 201.669 33.87V37H200.489ZM198.809 37.07C198.409 37.07 198.059 37.0033 197.759 36.87C197.459 36.73 197.226 36.54 197.059 36.3C196.899 36.0533 196.819 35.7767 196.819 35.47C196.819 35.17 196.889 34.9 197.029 34.66C197.176 34.42 197.412 34.23 197.739 34.09C198.066 33.95 198.499 33.88 199.039 33.88H200.589V34.71H199.129C198.702 34.71 198.416 34.78 198.269 34.92C198.122 35.0533 198.049 35.22 198.049 35.42C198.049 35.6467 198.139 35.8267 198.319 35.96C198.499 36.0933 198.749 36.16 199.069 36.16C199.376 36.16 199.649 36.09 199.889 35.95C200.136 35.81 200.312 35.6033 200.419 35.33L200.629 36.08C200.509 36.3933 200.292 36.6367 199.979 36.81C199.672 36.9833 199.282 37.07 198.809 37.07ZM206.037 37V31.66H207.287V37H206.037ZM206.667 30.78C206.433 30.78 206.24 30.7067 206.087 30.56C205.94 30.4133 205.867 30.2367 205.867 30.03C205.867 29.8167 205.94 29.64 206.087 29.5C206.24 29.3533 206.433 29.28 206.667 29.28C206.9 29.28 207.09 29.35 207.237 29.49C207.39 29.6233 207.467 29.7933 207.467 30C207.467 30.22 207.393 30.4067 207.247 30.56C207.1 30.7067 206.907 30.78 206.667 30.78ZM211.957 31.6C212.384 31.6 212.764 31.6833 213.097 31.85C213.437 32.0167 213.704 32.2733 213.897 32.62C214.091 32.96 214.187 33.4 214.187 33.94V37H212.937V34.1C212.937 33.6267 212.824 33.2733 212.597 33.04C212.377 32.8067 212.067 32.69 211.667 32.69C211.374 32.69 211.114 32.75 210.887 32.87C210.661 32.99 210.484 33.17 210.357 33.41C210.237 33.6433 210.177 33.94 210.177 34.3V37H208.927V31.66H210.117V33.1L209.907 32.66C210.094 32.32 210.364 32.06 210.717 31.88C211.077 31.6933 211.491 31.6 211.957 31.6ZM218.043 37.07C217.53 37.07 217.066 36.9567 216.653 36.73C216.246 36.4967 215.926 36.1767 215.693 35.77C215.46 35.3633 215.343 34.8833 215.343 34.33C215.343 33.7767 215.46 33.2967 215.693 32.89C215.926 32.4833 216.246 32.1667 216.653 31.94C217.066 31.7133 217.53 31.6 218.043 31.6C218.49 31.6 218.89 31.7 219.243 31.9C219.596 32.0933 219.876 32.39 220.083 32.79C220.29 33.19 220.393 33.7033 220.393 34.33C220.393 34.95 220.293 35.4633 220.093 35.87C219.893 36.27 219.616 36.57 219.263 36.77C218.91 36.97 218.503 37.07 218.043 37.07ZM218.193 36C218.493 36 218.76 35.9333 218.993 35.8C219.233 35.6667 219.423 35.4733 219.563 35.22C219.71 34.9667 219.783 34.67 219.783 34.33C219.783 33.9833 219.71 33.6867 219.563 33.44C219.423 33.1867 219.233 32.9933 218.993 32.86C218.76 32.7267 218.493 32.66 218.193 32.66C217.893 32.66 217.623 32.7267 217.383 32.86C217.15 32.9933 216.96 33.1867 216.813 33.44C216.673 33.6867 216.603 33.9833 216.603 34.33C216.603 34.67 216.673 34.9667 216.813 35.22C216.96 35.4733 217.15 35.6667 217.383 35.8C217.623 35.9333 217.893 36 218.193 36ZM219.813 37V35.74L219.863 34.32L219.763 32.9V29.58H221.003V37H219.813ZM224.908 37.07C224.455 37.07 224.055 36.9867 223.708 36.82C223.361 36.6467 223.091 36.3867 222.898 36.04C222.705 35.6867 222.608 35.2433 222.608 34.71V31.66H223.858V34.54C223.858 35.02 223.965 35.38 224.178 35.62C224.398 35.8533 224.708 35.97 225.108 35.97C225.401 35.97 225.655 35.91 225.868 35.79C226.088 35.67 226.258 35.49 226.378 35.25C226.505 35.01 226.568 34.7133 226.568 34.36V31.66H227.818V37H226.628V35.56L226.838 36C226.658 36.3467 226.395 36.6133 226.048 36.8C225.701 36.98 225.321 37.07 224.908 37.07ZM224.368 30.93L225.718 29.56H227.188L225.448 30.93H224.368ZM231.105 37.07C230.658 37.07 230.228 37.0133 229.815 36.9C229.408 36.78 229.085 36.6367 228.845 36.47L229.325 35.52C229.565 35.6733 229.851 35.8 230.185 35.9C230.518 36 230.851 36.05 231.185 36.05C231.578 36.05 231.861 35.9967 232.035 35.89C232.215 35.7833 232.305 35.64 232.305 35.46C232.305 35.3133 232.245 35.2033 232.125 35.13C232.005 35.05 231.848 34.99 231.655 34.95C231.461 34.91 231.245 34.8733 231.005 34.84C230.771 34.8067 230.535 34.7633 230.295 34.71C230.061 34.65 229.848 34.5667 229.655 34.46C229.461 34.3467 229.305 34.1967 229.185 34.01C229.065 33.8233 229.005 33.5767 229.005 33.27C229.005 32.93 229.101 32.6367 229.295 32.39C229.488 32.1367 229.758 31.9433 230.105 31.81C230.458 31.67 230.875 31.6 231.355 31.6C231.715 31.6 232.078 31.64 232.445 31.72C232.811 31.8 233.115 31.9133 233.355 32.06L232.875 33.01C232.621 32.8567 232.365 32.7533 232.105 32.7C231.851 32.64 231.598 32.61 231.345 32.61C230.965 32.61 230.681 32.6667 230.495 32.78C230.315 32.8933 230.225 33.0367 230.225 33.21C230.225 33.37 230.285 33.49 230.405 33.57C230.525 33.65 230.681 33.7133 230.875 33.76C231.068 33.8067 231.281 33.8467 231.515 33.88C231.755 33.9067 231.991 33.95 232.225 34.01C232.458 34.07 232.671 34.1533 232.865 34.26C233.065 34.36 233.225 34.5033 233.345 34.69C233.465 34.8767 233.525 35.12 233.525 35.42C233.525 35.7533 233.425 36.0433 233.225 36.29C233.031 36.5367 232.755 36.73 232.395 36.87C232.035 37.0033 231.605 37.07 231.105 37.07ZM236.611 37.07C236.025 37.07 235.571 36.92 235.251 36.62C234.931 36.3133 234.771 35.8633 234.771 35.27V30.48H236.021V35.24C236.021 35.4933 236.085 35.69 236.211 35.83C236.345 35.97 236.528 36.04 236.761 36.04C237.041 36.04 237.275 35.9667 237.461 35.82L237.811 36.71C237.665 36.83 237.485 36.92 237.271 36.98C237.058 37.04 236.838 37.07 236.611 37.07ZM233.891 32.7V31.7H237.451V32.7H233.891ZM238.84 37V31.66H240.03V33.13L239.89 32.7C240.05 32.34 240.3 32.0667 240.64 31.88C240.986 31.6933 241.416 31.6 241.93 31.6V32.79C241.876 32.7767 241.826 32.77 241.78 32.77C241.733 32.7633 241.686 32.76 241.64 32.76C241.166 32.76 240.79 32.9 240.51 33.18C240.23 33.4533 240.09 33.8633 240.09 34.41V37H238.84ZM242.99 37V31.66H244.24V37H242.99ZM243.62 30.78C243.387 30.78 243.193 30.7067 243.04 30.56C242.893 30.4133 242.82 30.2367 242.82 30.03C242.82 29.8167 242.893 29.64 243.04 29.5C243.193 29.3533 243.387 29.28 243.62 29.28C243.853 29.28 244.043 29.35 244.19 29.49C244.343 29.6233 244.42 29.7933 244.42 30C244.42 30.22 244.347 30.4067 244.2 30.56C244.053 30.7067 243.86 30.78 243.62 30.78ZM249.171 37V35.92L249.101 35.69V33.8C249.101 33.4333 248.991 33.15 248.771 32.95C248.551 32.7433 248.217 32.64 247.771 32.64C247.471 32.64 247.174 32.6867 246.881 32.78C246.594 32.8733 246.351 33.0033 246.151 33.17L245.661 32.26C245.947 32.04 246.287 31.8767 246.681 31.77C247.081 31.6567 247.494 31.6 247.921 31.6C248.694 31.6 249.291 31.7867 249.711 32.16C250.137 32.5267 250.351 33.0967 250.351 33.87V37H249.171ZM247.491 37.07C247.091 37.07 246.741 37.0033 246.441 36.87C246.141 36.73 245.907 36.54 245.741 36.3C245.581 36.0533 245.501 35.7767 245.501 35.47C245.501 35.17 245.571 34.9 245.711 34.66C245.857 34.42 246.094 34.23 246.421 34.09C246.747 33.95 247.181 33.88 247.721 33.88H249.271V34.71H247.811C247.384 34.71 247.097 34.78 246.951 34.92C246.804 35.0533 246.731 35.22 246.731 35.42C246.731 35.6467 246.821 35.8267 247.001 35.96C247.181 36.0933 247.431 36.16 247.751 36.16C248.057 36.16 248.331 36.09 248.571 35.95C248.817 35.81 248.994 35.6033 249.101 35.33L249.311 36.08C249.191 36.3933 248.974 36.6367 248.661 36.81C248.354 36.9833 247.964 37.07 247.491 37.07ZM251.955 37V31.66H253.205V37H251.955ZM252.585 30.78C252.351 30.78 252.158 30.7067 252.005 30.56C251.858 30.4133 251.785 30.2367 251.785 30.03C251.785 29.8167 251.858 29.64 252.005 29.5C252.158 29.3533 252.351 29.28 252.585 29.28C252.818 29.28 253.008 29.35 253.155 29.49C253.308 29.6233 253.385 29.7933 253.385 30C253.385 30.22 253.311 30.4067 253.165 30.56C253.018 30.7067 252.825 30.78 252.585 30.78ZM256.495 37.07C256.049 37.07 255.619 37.0133 255.205 36.9C254.799 36.78 254.475 36.6367 254.235 36.47L254.715 35.52C254.955 35.6733 255.242 35.8 255.575 35.9C255.909 36 256.242 36.05 256.575 36.05C256.969 36.05 257.252 35.9967 257.425 35.89C257.605 35.7833 257.695 35.64 257.695 35.46C257.695 35.3133 257.635 35.2033 257.515 35.13C257.395 35.05 257.239 34.99 257.045 34.95C256.852 34.91 256.635 34.8733 256.395 34.84C256.162 34.8067 255.925 34.7633 255.685 34.71C255.452 34.65 255.239 34.5667 255.045 34.46C254.852 34.3467 254.695 34.1967 254.575 34.01C254.455 33.8233 254.395 33.5767 254.395 33.27C254.395 32.93 254.492 32.6367 254.685 32.39C254.879 32.1367 255.149 31.9433 255.495 31.81C255.849 31.67 256.265 31.6 256.745 31.6C257.105 31.6 257.469 31.64 257.835 31.72C258.202 31.8 258.505 31.9133 258.745 32.06L258.265 33.01C258.012 32.8567 257.755 32.7533 257.495 32.7C257.242 32.64 256.989 32.61 256.735 32.61C256.355 32.61 256.072 32.6667 255.885 32.78C255.705 32.8933 255.615 33.0367 255.615 33.21C255.615 33.37 255.675 33.49 255.795 33.57C255.915 33.65 256.072 33.7133 256.265 33.76C256.459 33.8067 256.672 33.8467 256.905 33.88C257.145 33.9067 257.382 33.95 257.615 34.01C257.849 34.07 258.062 34.1533 258.255 34.26C258.455 34.36 258.615 34.5033 258.735 34.69C258.855 34.8767 258.915 35.12 258.915 35.42C258.915 35.7533 258.815 36.0433 258.615 36.29C258.422 36.5367 258.145 36.73 257.785 36.87C257.425 37.0033 256.995 37.07 256.495 37.07Z" fill="white"/>
<path d="M74.05 53V46H76.78C77.3933 46 77.9167 46.0967 78.35 46.29C78.7833 46.4833 79.1167 46.7633 79.35 47.13C79.5833 47.4967 79.7 47.9333 79.7 48.44C79.7 48.9467 79.5833 49.3833 79.35 49.75C79.1167 50.11 78.7833 50.39 78.35 50.59C77.9167 50.7833 77.3933 50.88 76.78 50.88H74.6L75.05 50.41V53H74.05ZM75.05 50.51L74.6 50.01H76.75C77.39 50.01 77.8733 49.8733 78.2 49.6C78.5333 49.3267 78.7 48.94 78.7 48.44C78.7 47.94 78.5333 47.5533 78.2 47.28C77.8733 47.0067 77.39 46.87 76.75 46.87H74.6L75.05 46.37V50.51ZM81.1691 53V46H83.8991C84.5125 46 85.0358 46.0967 85.4691 46.29C85.9025 46.4833 86.2358 46.7633 86.4691 47.13C86.7025 47.4967 86.8191 47.9333 86.8191 48.44C86.8191 48.9467 86.7025 49.3833 86.4691 49.75C86.2358 50.11 85.9025 50.3867 85.4691 50.58C85.0358 50.7733 84.5125 50.87 83.8991 50.87H81.7191L82.1691 50.41V53H81.1691ZM85.8491 53L84.0691 50.46H85.1391L86.9391 53H85.8491ZM82.1691 50.51L81.7191 50.02H83.8691C84.5091 50.02 84.9925 49.8833 85.3191 49.61C85.6525 49.33 85.8191 48.94 85.8191 48.44C85.8191 47.94 85.6525 47.5533 85.3191 47.28C84.9925 47.0067 84.5091 46.87 83.8691 46.87H81.7191L82.1691 46.37V50.51ZM90.4548 53L87.3748 46H88.4548L91.2848 52.46H90.6648L93.5148 46H94.5148L91.4448 53H90.4548ZM95.4074 53V46H96.2274L100.857 51.75H100.427V46H101.427V53H100.607L95.9774 47.25H96.4074V53H95.4074ZM104.913 53V46.87H102.513V46H108.303V46.87H105.903V53H104.913ZM111.334 53L108.254 46H109.334L112.164 52.46H111.544L114.394 46H115.394L112.324 53H111.334Z" fill="#FCF9F9"/>
<line x1="66.35" y1="5" x2="66.35" y2="75.4" stroke="#FCF9F9" stroke-width="2.7"/>
<g clip-path="url(#clip1_208_15)">
<path d="M14.5065 18.519L60.6499 18.7301L14.7394 64.6623L14.5065 18.519Z" fill="#00BF63"/>
</g>
<rect x="13.5" y="17.5" width="42" height="42" stroke="#00BF63" stroke-width="3"/>
</g>
<defs>
<clipPath id="clip0_208_15">
<rect width="265" height="81" fill="white"/>
</clipPath>
<clipPath id="clip1_208_15">
<rect x="12" y="16" width="45" height="45" fill="white"/>
</clipPath>
</defs>
</svg>
